{
	"asset":{
		"generator":"Khronos glTF Blender I/O v5.1.19",
		"version":"2.0"
	},
	"extensionsUsed":[
		"KHR_materials_specular"
	],
	"scene":0,
	"scenes":[
		{
			"name":"Scene",
			"nodes":[
				0,
				1,
				2,
				3
			]
		}
	],
	"nodes":[
		{
			"mesh":0,
			"name":"castle-wall.001",
			"translation":[
				10,
				0,
				-7
			]
		},
		{
			"mesh":1,
			"name":"castle-wall-w-window-small.001",
			"rotation":[
				0,
				-1,
				0,
				4.371138828673793e-08
			],
			"translation":[
				8,
				0,
				7
			]
		},
		{
			"mesh":2,
			"name":"ground-tile.050",
			"translation":[
				10,
				0,
				3
			]
		},
		{
			"mesh":3,
			"name":"COL",
			"scale":[
				1.2349272966384888,
				0.5612164735794067,
				0.5046303868293762
			],
			"translation":[
				5.626691818237305,
				2.3886420726776123,
				-6.591720104217529
			]
		}
	],
	"materials":[
		{
			"doubleSided":true,
			"extensions":{
				"KHR_materials_specular":{
					"specularFactor":0.7291666269302368
				}
			},
			"name":"wall-1.002",
			"pbrMetallicRoughness":{
				"baseColorTexture":{
					"index":0
				},
				"metallicFactor":0,
				"roughnessFactor":0.5
			}
		},
		{
			"doubleSided":true,
			"name":"tiles-non-ground.002",
			"pbrMetallicRoughness":{
				"baseColorTexture":{
					"index":1
				},
				"metallicFactor":0,
				"roughnessFactor":0.5
			}
		},
		{
			"doubleSided":true,
			"extensions":{
				"KHR_materials_specular":{
					"specularFactor":0.5625
				}
			},
			"name":"concrete.002",
			"pbrMetallicRoughness":{
				"baseColorTexture":{
					"index":2
				},
				"metallicFactor":0,
				"roughnessFactor":0.5
			}
		},
		{
			"doubleSided":true,
			"extensions":{
				"KHR_materials_specular":{
					"specularFactor":0.4999999701976776
				}
			},
			"name":"dark_wall",
			"pbrMetallicRoughness":{
				"baseColorTexture":{
					"index":3
				},
				"metallicFactor":0,
				"roughnessFactor":0.5
			}
		},
		{
			"doubleSided":true,
			"extensions":{
				"KHR_materials_specular":{
					"specularFactor":0.7291666269302368
				}
			},
			"name":"wall-1",
			"pbrMetallicRoughness":{
				"baseColorTexture":{
					"index":4
				},
				"metallicFactor":0,
				"roughnessFactor":0.5
			}
		},
		{
			"doubleSided":true,
			"name":"tiles-non-ground",
			"pbrMetallicRoughness":{
				"baseColorTexture":{
					"index":5
				},
				"metallicFactor":0,
				"roughnessFactor":0.5
			}
		},
		{
			"doubleSided":true,
			"extensions":{
				"KHR_materials_specular":{
					"specularColorFactor":[
						1.6923449039459229,
						1.6923449039459229,
						1.6923449039459229
					]
				}
			},
			"name":"torch",
			"pbrMetallicRoughness":{
				"baseColorTexture":{
					"index":6
				},
				"metallicFactor":0,
				"roughnessFactor":0.5
			}
		},
		{
			"doubleSided":true,
			"extensions":{
				"KHR_materials_specular":{
					"specularFactor":0.5625
				}
			},
			"name":"concrete",
			"pbrMetallicRoughness":{
				"baseColorTexture":{
					"index":7
				},
				"metallicFactor":0,
				"roughnessFactor":0.5
			}
		},
		{
			"doubleSided":true,
			"extensions":{
				"KHR_materials_specular":{
					"specularFactor":0.7291666269302368
				}
			},
			"name":"wall-1.003",
			"pbrMetallicRoughness":{
				"baseColorTexture":{
					"index":8
				},
				"metallicFactor":0,
				"roughnessFactor":0.5
			}
		},
		{
			"doubleSided":true,
			"name":"tiles-non-ground.004",
			"pbrMetallicRoughness":{
				"baseColorTexture":{
					"index":9
				},
				"metallicFactor":0,
				"roughnessFactor":0.5
			}
		},
		{
			"doubleSided":true,
			"extensions":{
				"KHR_materials_specular":{
					"specularColorFactor":[
						1.6923449039459229,
						1.6923449039459229,
						1.6923449039459229
					]
				}
			},
			"name":"torch.001",
			"pbrMetallicRoughness":{
				"baseColorTexture":{
					"index":10
				},
				"metallicFactor":0,
				"roughnessFactor":0.5
			}
		},
		{
			"doubleSided":true,
			"extensions":{
				"KHR_materials_specular":{
					"specularFactor":0.5625
				}
			},
			"name":"concrete.004",
			"pbrMetallicRoughness":{
				"baseColorTexture":{
					"index":11
				},
				"metallicFactor":0,
				"roughnessFactor":0.5
			}
		},
		{
			"doubleSided":true,
			"extensions":{
				"KHR_materials_specular":{
					"specularFactor":0.4999999701976776
				}
			},
			"name":"dark_wall.001",
			"pbrMetallicRoughness":{
				"baseColorTexture":{
					"index":12
				},
				"metallicFactor":0,
				"roughnessFactor":0.5
			}
		},
		{
			"doubleSided":true,
			"extensions":{
				"KHR_materials_specular":{
					"specularFactor":0.7291666269302368
				}
			},
			"name":"wall-1.004",
			"pbrMetallicRoughness":{
				"baseColorTexture":{
					"index":13
				},
				"metallicFactor":0,
				"roughnessFactor":0.5
			}
		},
		{
			"doubleSided":true,
			"name":"tiles-non-ground.003",
			"pbrMetallicRoughness":{
				"baseColorTexture":{
					"index":14
				},
				"metallicFactor":0,
				"roughnessFactor":0.5
			}
		},
		{
			"doubleSided":true,
			"extensions":{
				"KHR_materials_specular":{
					"specularFactor":0.5625
				}
			},
			"name":"concrete.003",
			"pbrMetallicRoughness":{
				"baseColorTexture":{
					"index":15
				},
				"metallicFactor":0,
				"roughnessFactor":0.5
			}
		},
		{
			"doubleSided":true,
			"name":"Ground-1.051",
			"pbrMetallicRoughness":{
				"baseColorTexture":{
					"index":16
				},
				"metallicFactor":0,
				"roughnessFactor":0.5
			}
		},
		{
			"doubleSided":true,
			"name":"Ground-1",
			"pbrMetallicRoughness":{
				"baseColorTexture":{
					"index":17
				},
				"metallicFactor":0,
				"roughnessFactor":0.5
			}
		},
		{
			"doubleSided":true,
			"name":"Ground-1.001",
			"pbrMetallicRoughness":{
				"baseColorTexture":{
					"index":18
				},
				"metallicFactor":0,
				"roughnessFactor":0.5
			}
		},
		{
			"doubleSided":true,
			"name":"Ground-1.002",
			"pbrMetallicRoughness":{
				"baseColorTexture":{
					"index":19
				},
				"metallicFactor":0,
				"roughnessFactor":0.5
			}
		},
		{
			"doubleSided":true,
			"name":"Ground-1.003",
			"pbrMetallicRoughness":{
				"baseColorTexture":{
					"index":20
				},
				"metallicFactor":0,
				"roughnessFactor":0.5
			}
		},
		{
			"doubleSided":true,
			"name":"Ground-1.004",
			"pbrMetallicRoughness":{
				"baseColorTexture":{
					"index":21
				},
				"metallicFactor":0,
				"roughnessFactor":0.5
			}
		},
		{
			"doubleSided":true,
			"name":"Ground-1.005",
			"pbrMetallicRoughness":{
				"baseColorTexture":{
					"index":22
				},
				"metallicFactor":0,
				"roughnessFactor":0.5
			}
		},
		{
			"doubleSided":true,
			"name":"Ground-1.006",
			"pbrMetallicRoughness":{
				"baseColorTexture":{
					"index":23
				},
				"metallicFactor":0,
				"roughnessFactor":0.5
			}
		},
		{
			"doubleSided":true,
			"name":"Ground-1.007",
			"pbrMetallicRoughness":{
				"baseColorTexture":{
					"index":24
				},
				"metallicFactor":0,
				"roughnessFactor":0.5
			}
		},
		{
			"doubleSided":true,
			"name":"Ground-1.008",
			"pbrMetallicRoughness":{
				"baseColorTexture":{
					"index":25
				},
				"metallicFactor":0,
				"roughnessFactor":0.5
			}
		},
		{
			"doubleSided":true,
			"name":"Ground-1.009",
			"pbrMetallicRoughness":{
				"baseColorTexture":{
					"index":26
				},
				"metallicFactor":0,
				"roughnessFactor":0.5
			}
		},
		{
			"doubleSided":true,
			"name":"Ground-1.010",
			"pbrMetallicRoughness":{
				"baseColorTexture":{
					"index":27
				},
				"metallicFactor":0,
				"roughnessFactor":0.5
			}
		},
		{
			"doubleSided":true,
			"name":"Ground-1.011",
			"pbrMetallicRoughness":{
				"baseColorTexture":{
					"index":28
				},
				"metallicFactor":0,
				"roughnessFactor":0.5
			}
		},
		{
			"doubleSided":true,
			"name":"Ground-1.013",
			"pbrMetallicRoughness":{
				"baseColorTexture":{
					"index":29
				},
				"metallicFactor":0,
				"roughnessFactor":0.5
			}
		},
		{
			"doubleSided":true,
			"name":"Ground-1.014",
			"pbrMetallicRoughness":{
				"baseColorTexture":{
					"index":30
				},
				"metallicFactor":0,
				"roughnessFactor":0.5
			}
		},
		{
			"doubleSided":true,
			"name":"Ground-1.015",
			"pbrMetallicRoughness":{
				"baseColorTexture":{
					"index":31
				},
				"metallicFactor":0,
				"roughnessFactor":0.5
			}
		},
		{
			"doubleSided":true,
			"name":"Ground-1.016",
			"pbrMetallicRoughness":{
				"baseColorTexture":{
					"index":32
				},
				"metallicFactor":0,
				"roughnessFactor":0.5
			}
		},
		{
			"doubleSided":true,
			"name":"Ground-1.017",
			"pbrMetallicRoughness":{
				"baseColorTexture":{
					"index":33
				},
				"metallicFactor":0,
				"roughnessFactor":0.5
			}
		},
		{
			"doubleSided":true,
			"name":"Ground-1.018",
			"pbrMetallicRoughness":{
				"baseColorTexture":{
					"index":34
				},
				"metallicFactor":0,
				"roughnessFactor":0.5
			}
		},
		{
			"doubleSided":true,
			"name":"Ground-1.019",
			"pbrMetallicRoughness":{
				"baseColorTexture":{
					"index":35
				},
				"metallicFactor":0,
				"roughnessFactor":0.5
			}
		},
		{
			"doubleSided":true,
			"name":"Ground-1.020",
			"pbrMetallicRoughness":{
				"baseColorTexture":{
					"index":36
				},
				"metallicFactor":0,
				"roughnessFactor":0.5
			}
		},
		{
			"doubleSided":true,
			"name":"Ground-1.021",
			"pbrMetallicRoughness":{
				"baseColorTexture":{
					"index":37
				},
				"metallicFactor":0,
				"roughnessFactor":0.5
			}
		},
		{
			"doubleSided":true,
			"name":"Ground-1.022",
			"pbrMetallicRoughness":{
				"baseColorTexture":{
					"index":38
				},
				"metallicFactor":0,
				"roughnessFactor":0.5
			}
		},
		{
			"doubleSided":true,
			"name":"Ground-1.023",
			"pbrMetallicRoughness":{
				"baseColorTexture":{
					"index":39
				},
				"metallicFactor":0,
				"roughnessFactor":0.5
			}
		},
		{
			"doubleSided":true,
			"name":"Ground-1.024",
			"pbrMetallicRoughness":{
				"baseColorTexture":{
					"index":40
				},
				"metallicFactor":0,
				"roughnessFactor":0.5
			}
		},
		{
			"doubleSided":true,
			"name":"Ground-1.025",
			"pbrMetallicRoughness":{
				"baseColorTexture":{
					"index":41
				},
				"metallicFactor":0,
				"roughnessFactor":0.5
			}
		},
		{
			"doubleSided":true,
			"name":"Ground-1.026",
			"pbrMetallicRoughness":{
				"baseColorTexture":{
					"index":42
				},
				"metallicFactor":0,
				"roughnessFactor":0.5
			}
		},
		{
			"doubleSided":true,
			"name":"Ground-1.027",
			"pbrMetallicRoughness":{
				"baseColorTexture":{
					"index":43
				},
				"metallicFactor":0,
				"roughnessFactor":0.5
			}
		},
		{
			"doubleSided":true,
			"name":"Ground-1.028",
			"pbrMetallicRoughness":{
				"baseColorTexture":{
					"index":44
				},
				"metallicFactor":0,
				"roughnessFactor":0.5
			}
		},
		{
			"doubleSided":true,
			"name":"Ground-1.029",
			"pbrMetallicRoughness":{
				"baseColorTexture":{
					"index":45
				},
				"metallicFactor":0,
				"roughnessFactor":0.5
			}
		},
		{
			"doubleSided":true,
			"name":"Ground-1.030",
			"pbrMetallicRoughness":{
				"baseColorTexture":{
					"index":46
				},
				"metallicFactor":0,
				"roughnessFactor":0.5
			}
		},
		{
			"doubleSided":true,
			"name":"Ground-1.031",
			"pbrMetallicRoughness":{
				"baseColorTexture":{
					"index":47
				},
				"metallicFactor":0,
				"roughnessFactor":0.5
			}
		},
		{
			"doubleSided":true,
			"name":"Ground-1.032",
			"pbrMetallicRoughness":{
				"baseColorTexture":{
					"index":48
				},
				"metallicFactor":0,
				"roughnessFactor":0.5
			}
		},
		{
			"doubleSided":true,
			"name":"Ground-1.033",
			"pbrMetallicRoughness":{
				"baseColorTexture":{
					"index":49
				},
				"metallicFactor":0,
				"roughnessFactor":0.5
			}
		},
		{
			"doubleSided":true,
			"name":"Ground-1.034",
			"pbrMetallicRoughness":{
				"baseColorTexture":{
					"index":50
				},
				"metallicFactor":0,
				"roughnessFactor":0.5
			}
		},
		{
			"doubleSided":true,
			"name":"Ground-1.035",
			"pbrMetallicRoughness":{
				"baseColorTexture":{
					"index":51
				},
				"metallicFactor":0,
				"roughnessFactor":0.5
			}
		},
		{
			"doubleSided":true,
			"name":"Ground-1.036",
			"pbrMetallicRoughness":{
				"baseColorTexture":{
					"index":52
				},
				"metallicFactor":0,
				"roughnessFactor":0.5
			}
		},
		{
			"doubleSided":true,
			"name":"Ground-1.037",
			"pbrMetallicRoughness":{
				"baseColorTexture":{
					"index":53
				},
				"metallicFactor":0,
				"roughnessFactor":0.5
			}
		},
		{
			"doubleSided":true,
			"name":"Ground-1.038",
			"pbrMetallicRoughness":{
				"baseColorTexture":{
					"index":54
				},
				"metallicFactor":0,
				"roughnessFactor":0.5
			}
		},
		{
			"doubleSided":true,
			"name":"Ground-1.039",
			"pbrMetallicRoughness":{
				"baseColorTexture":{
					"index":55
				},
				"metallicFactor":0,
				"roughnessFactor":0.5
			}
		},
		{
			"doubleSided":true,
			"name":"Ground-1.040",
			"pbrMetallicRoughness":{
				"baseColorTexture":{
					"index":56
				},
				"metallicFactor":0,
				"roughnessFactor":0.5
			}
		},
		{
			"doubleSided":true,
			"name":"Ground-1.041",
			"pbrMetallicRoughness":{
				"baseColorTexture":{
					"index":57
				},
				"metallicFactor":0,
				"roughnessFactor":0.5
			}
		},
		{
			"doubleSided":true,
			"name":"Ground-1.042",
			"pbrMetallicRoughness":{
				"baseColorTexture":{
					"index":58
				},
				"metallicFactor":0,
				"roughnessFactor":0.5
			}
		},
		{
			"doubleSided":true,
			"name":"Ground-1.043",
			"pbrMetallicRoughness":{
				"baseColorTexture":{
					"index":59
				},
				"metallicFactor":0,
				"roughnessFactor":0.5
			}
		},
		{
			"doubleSided":true,
			"name":"Ground-1.045",
			"pbrMetallicRoughness":{
				"baseColorTexture":{
					"index":60
				},
				"metallicFactor":0,
				"roughnessFactor":0.5
			}
		},
		{
			"doubleSided":true,
			"name":"Ground-1.046",
			"pbrMetallicRoughness":{
				"baseColorTexture":{
					"index":61
				},
				"metallicFactor":0,
				"roughnessFactor":0.5
			}
		},
		{
			"doubleSided":true,
			"name":"Ground-1.047",
			"pbrMetallicRoughness":{
				"baseColorTexture":{
					"index":62
				},
				"metallicFactor":0,
				"roughnessFactor":0.5
			}
		},
		{
			"doubleSided":true,
			"name":"Ground-1.048",
			"pbrMetallicRoughness":{
				"baseColorTexture":{
					"index":63
				},
				"metallicFactor":0,
				"roughnessFactor":0.5
			}
		},
		{
			"doubleSided":true,
			"name":"Ground-1.049",
			"pbrMetallicRoughness":{
				"baseColorTexture":{
					"index":64
				},
				"metallicFactor":0,
				"roughnessFactor":0.5
			}
		},
		{
			"doubleSided":true,
			"name":"Ground-1.050",
			"pbrMetallicRoughness":{
				"baseColorTexture":{
					"index":65
				},
				"metallicFactor":0,
				"roughnessFactor":0.5
			}
		},
		{
			"doubleSided":true,
			"name":"Ground-1.052",
			"pbrMetallicRoughness":{
				"baseColorTexture":{
					"index":66
				},
				"metallicFactor":0,
				"roughnessFactor":0.5
			}
		},
		{
			"doubleSided":true,
			"name":"Ground-1.053",
			"pbrMetallicRoughness":{
				"baseColorTexture":{
					"index":67
				},
				"metallicFactor":0,
				"roughnessFactor":0.5
			}
		},
		{
			"doubleSided":true,
			"name":"Ground-1.054",
			"pbrMetallicRoughness":{
				"baseColorTexture":{
					"index":68
				},
				"metallicFactor":0,
				"roughnessFactor":0.5
			}
		}
	],
	"meshes":[
		{
			"name":"Cube.001",
			"primitives":[
				{
					"attributes":{
						"POSITION":0,
						"NORMAL":1,
						"TEXCOORD_0":2
					},
					"indices":3,
					"material":0
				},
				{
					"attributes":{
						"POSITION":4,
						"NORMAL":5,
						"TEXCOORD_0":6
					},
					"indices":7,
					"material":1
				},
				{
					"attributes":{
						"POSITION":8,
						"NORMAL":9,
						"TEXCOORD_0":10
					},
					"indices":11,
					"material":2
				},
				{
					"attributes":{
						"POSITION":12,
						"NORMAL":13,
						"TEXCOORD_0":14
					},
					"indices":15,
					"material":3
				},
				{
					"attributes":{
						"POSITION":16,
						"NORMAL":17,
						"TEXCOORD_0":18
					},
					"indices":19,
					"material":4
				},
				{
					"attributes":{
						"POSITION":20,
						"NORMAL":21,
						"TEXCOORD_0":22
					},
					"indices":23,
					"material":5
				},
				{
					"attributes":{
						"POSITION":24,
						"NORMAL":25,
						"TEXCOORD_0":26
					},
					"indices":27,
					"material":6
				},
				{
					"attributes":{
						"POSITION":28,
						"NORMAL":29,
						"TEXCOORD_0":30
					},
					"indices":31,
					"material":7
				}
			]
		},
		{
			"name":"Cube.021",
			"primitives":[
				{
					"attributes":{
						"POSITION":32,
						"NORMAL":33,
						"TEXCOORD_0":34
					},
					"indices":35,
					"material":8
				},
				{
					"attributes":{
						"POSITION":36,
						"NORMAL":37,
						"TEXCOORD_0":38
					},
					"indices":39,
					"material":9
				},
				{
					"attributes":{
						"POSITION":40,
						"NORMAL":41,
						"TEXCOORD_0":42
					},
					"indices":27,
					"material":10
				},
				{
					"attributes":{
						"POSITION":43,
						"NORMAL":44,
						"TEXCOORD_0":45
					},
					"indices":46,
					"material":11
				},
				{
					"attributes":{
						"POSITION":47,
						"NORMAL":48,
						"TEXCOORD_0":49
					},
					"indices":50,
					"material":12
				},
				{
					"attributes":{
						"POSITION":51,
						"NORMAL":52,
						"TEXCOORD_0":53
					},
					"indices":3,
					"material":13
				},
				{
					"attributes":{
						"POSITION":54,
						"NORMAL":55,
						"TEXCOORD_0":56
					},
					"indices":7,
					"material":14
				},
				{
					"attributes":{
						"POSITION":57,
						"NORMAL":58,
						"TEXCOORD_0":59
					},
					"indices":11,
					"material":15
				}
			]
		},
		{
			"name":"Plane.057",
			"primitives":[
				{
					"attributes":{
						"POSITION":60,
						"NORMAL":61,
						"TEXCOORD_0":62
					},
					"indices":63,
					"material":16
				},
				{
					"attributes":{
						"POSITION":64,
						"NORMAL":65,
						"TEXCOORD_0":66
					},
					"indices":63,
					"material":17
				},
				{
					"attributes":{
						"POSITION":67,
						"NORMAL":68,
						"TEXCOORD_0":69
					},
					"indices":63,
					"material":18
				},
				{
					"attributes":{
						"POSITION":70,
						"NORMAL":71,
						"TEXCOORD_0":72
					},
					"indices":63,
					"material":19
				},
				{
					"attributes":{
						"POSITION":73,
						"NORMAL":74,
						"TEXCOORD_0":75
					},
					"indices":63,
					"material":20
				},
				{
					"attributes":{
						"POSITION":76,
						"NORMAL":77,
						"TEXCOORD_0":78
					},
					"indices":63,
					"material":21
				},
				{
					"attributes":{
						"POSITION":79,
						"NORMAL":80,
						"TEXCOORD_0":81
					},
					"indices":63,
					"material":22
				},
				{
					"attributes":{
						"POSITION":82,
						"NORMAL":83,
						"TEXCOORD_0":84
					},
					"indices":63,
					"material":23
				},
				{
					"attributes":{
						"POSITION":85,
						"NORMAL":86,
						"TEXCOORD_0":87
					},
					"indices":63,
					"material":24
				},
				{
					"attributes":{
						"POSITION":88,
						"NORMAL":89,
						"TEXCOORD_0":90
					},
					"indices":63,
					"material":25
				},
				{
					"attributes":{
						"POSITION":91,
						"NORMAL":92,
						"TEXCOORD_0":93
					},
					"indices":63,
					"material":26
				},
				{
					"attributes":{
						"POSITION":94,
						"NORMAL":95,
						"TEXCOORD_0":96
					},
					"indices":63,
					"material":27
				},
				{
					"attributes":{
						"POSITION":97,
						"NORMAL":98,
						"TEXCOORD_0":99
					},
					"indices":63,
					"material":28
				},
				{
					"attributes":{
						"POSITION":100,
						"NORMAL":101,
						"TEXCOORD_0":102
					},
					"indices":63,
					"material":29
				},
				{
					"attributes":{
						"POSITION":103,
						"NORMAL":104,
						"TEXCOORD_0":105
					},
					"indices":63,
					"material":30
				},
				{
					"attributes":{
						"POSITION":106,
						"NORMAL":107,
						"TEXCOORD_0":108
					},
					"indices":63,
					"material":31
				},
				{
					"attributes":{
						"POSITION":109,
						"NORMAL":110,
						"TEXCOORD_0":111
					},
					"indices":63,
					"material":32
				},
				{
					"attributes":{
						"POSITION":112,
						"NORMAL":113,
						"TEXCOORD_0":114
					},
					"indices":63,
					"material":33
				},
				{
					"attributes":{
						"POSITION":115,
						"NORMAL":116,
						"TEXCOORD_0":117
					},
					"indices":63,
					"material":34
				},
				{
					"attributes":{
						"POSITION":118,
						"NORMAL":119,
						"TEXCOORD_0":120
					},
					"indices":63,
					"material":35
				},
				{
					"attributes":{
						"POSITION":121,
						"NORMAL":122,
						"TEXCOORD_0":123
					},
					"indices":63,
					"material":36
				},
				{
					"attributes":{
						"POSITION":124,
						"NORMAL":125,
						"TEXCOORD_0":126
					},
					"indices":63,
					"material":37
				},
				{
					"attributes":{
						"POSITION":127,
						"NORMAL":128,
						"TEXCOORD_0":129
					},
					"indices":63,
					"material":38
				},
				{
					"attributes":{
						"POSITION":130,
						"NORMAL":131,
						"TEXCOORD_0":132
					},
					"indices":63,
					"material":39
				},
				{
					"attributes":{
						"POSITION":133,
						"NORMAL":134,
						"TEXCOORD_0":135
					},
					"indices":63,
					"material":40
				},
				{
					"attributes":{
						"POSITION":136,
						"NORMAL":137,
						"TEXCOORD_0":138
					},
					"indices":63,
					"material":41
				},
				{
					"attributes":{
						"POSITION":139,
						"NORMAL":140,
						"TEXCOORD_0":141
					},
					"indices":63,
					"material":42
				},
				{
					"attributes":{
						"POSITION":142,
						"NORMAL":143,
						"TEXCOORD_0":144
					},
					"indices":63,
					"material":43
				},
				{
					"attributes":{
						"POSITION":145,
						"NORMAL":146,
						"TEXCOORD_0":147
					},
					"indices":63,
					"material":44
				},
				{
					"attributes":{
						"POSITION":148,
						"NORMAL":149,
						"TEXCOORD_0":150
					},
					"indices":63,
					"material":45
				},
				{
					"attributes":{
						"POSITION":151,
						"NORMAL":152,
						"TEXCOORD_0":153
					},
					"indices":63,
					"material":46
				},
				{
					"attributes":{
						"POSITION":154,
						"NORMAL":155,
						"TEXCOORD_0":156
					},
					"indices":63,
					"material":47
				},
				{
					"attributes":{
						"POSITION":157,
						"NORMAL":158,
						"TEXCOORD_0":159
					},
					"indices":63,
					"material":48
				},
				{
					"attributes":{
						"POSITION":160,
						"NORMAL":161,
						"TEXCOORD_0":162
					},
					"indices":63,
					"material":49
				},
				{
					"attributes":{
						"POSITION":163,
						"NORMAL":164,
						"TEXCOORD_0":165
					},
					"indices":63,
					"material":50
				},
				{
					"attributes":{
						"POSITION":166,
						"NORMAL":167,
						"TEXCOORD_0":168
					},
					"indices":63,
					"material":51
				},
				{
					"attributes":{
						"POSITION":169,
						"NORMAL":170,
						"TEXCOORD_0":171
					},
					"indices":63,
					"material":52
				},
				{
					"attributes":{
						"POSITION":172,
						"NORMAL":173,
						"TEXCOORD_0":174
					},
					"indices":63,
					"material":53
				},
				{
					"attributes":{
						"POSITION":175,
						"NORMAL":176,
						"TEXCOORD_0":177
					},
					"indices":63,
					"material":54
				},
				{
					"attributes":{
						"POSITION":178,
						"NORMAL":179,
						"TEXCOORD_0":180
					},
					"indices":63,
					"material":55
				},
				{
					"attributes":{
						"POSITION":181,
						"NORMAL":182,
						"TEXCOORD_0":183
					},
					"indices":63,
					"material":56
				},
				{
					"attributes":{
						"POSITION":184,
						"NORMAL":185,
						"TEXCOORD_0":186
					},
					"indices":63,
					"material":57
				},
				{
					"attributes":{
						"POSITION":187,
						"NORMAL":188,
						"TEXCOORD_0":189
					},
					"indices":63,
					"material":58
				},
				{
					"attributes":{
						"POSITION":190,
						"NORMAL":191,
						"TEXCOORD_0":192
					},
					"indices":63,
					"material":59
				},
				{
					"attributes":{
						"POSITION":193,
						"NORMAL":194,
						"TEXCOORD_0":195
					},
					"indices":63,
					"material":60
				},
				{
					"attributes":{
						"POSITION":196,
						"NORMAL":197,
						"TEXCOORD_0":198
					},
					"indices":63,
					"material":61
				},
				{
					"attributes":{
						"POSITION":199,
						"NORMAL":200,
						"TEXCOORD_0":201
					},
					"indices":63,
					"material":62
				},
				{
					"attributes":{
						"POSITION":202,
						"NORMAL":203,
						"TEXCOORD_0":204
					},
					"indices":63,
					"material":63
				},
				{
					"attributes":{
						"POSITION":205,
						"NORMAL":206,
						"TEXCOORD_0":207
					},
					"indices":63,
					"material":64
				},
				{
					"attributes":{
						"POSITION":208,
						"NORMAL":209,
						"TEXCOORD_0":210
					},
					"indices":63,
					"material":65
				},
				{
					"attributes":{
						"POSITION":211,
						"NORMAL":212,
						"TEXCOORD_0":213
					},
					"indices":63,
					"material":66
				},
				{
					"attributes":{
						"POSITION":214,
						"NORMAL":215,
						"TEXCOORD_0":216
					},
					"indices":63,
					"material":67
				},
				{
					"attributes":{
						"POSITION":217,
						"NORMAL":218,
						"TEXCOORD_0":219
					},
					"indices":63,
					"material":68
				}
			]
		},
		{
			"name":"\u7acb\u65b9\u4f53",
			"primitives":[
				{
					"attributes":{
						"POSITION":220,
						"NORMAL":221,
						"TEXCOORD_0":222
					},
					"indices":223
				}
			]
		}
	],
	"textures":[
		{
			"sampler":0,
			"source":0
		},
		{
			"sampler":0,
			"source":1
		},
		{
			"sampler":0,
			"source":2
		},
		{
			"sampler":0,
			"source":3
		},
		{
			"sampler":0,
			"source":0
		},
		{
			"sampler":0,
			"source":1
		},
		{
			"sampler":0,
			"source":4
		},
		{
			"sampler":0,
			"source":2
		},
		{
			"sampler":0,
			"source":0
		},
		{
			"sampler":0,
			"source":1
		},
		{
			"sampler":0,
			"source":4
		},
		{
			"sampler":0,
			"source":2
		},
		{
			"sampler":0,
			"source":3
		},
		{
			"sampler":0,
			"source":0
		},
		{
			"sampler":0,
			"source":1
		},
		{
			"sampler":0,
			"source":2
		},
		{
			"sampler":0,
			"source":5
		},
		{
			"sampler":0,
			"source":5
		},
		{
			"sampler":0,
			"source":5
		},
		{
			"sampler":0,
			"source":5
		},
		{
			"sampler":0,
			"source":5
		},
		{
			"sampler":0,
			"source":5
		},
		{
			"sampler":0,
			"source":5
		},
		{
			"sampler":0,
			"source":5
		},
		{
			"sampler":0,
			"source":5
		},
		{
			"sampler":0,
			"source":5
		},
		{
			"sampler":0,
			"source":5
		},
		{
			"sampler":0,
			"source":5
		},
		{
			"sampler":0,
			"source":5
		},
		{
			"sampler":0,
			"source":5
		},
		{
			"sampler":0,
			"source":5
		},
		{
			"sampler":0,
			"source":5
		},
		{
			"sampler":0,
			"source":5
		},
		{
			"sampler":0,
			"source":5
		},
		{
			"sampler":0,
			"source":5
		},
		{
			"sampler":0,
			"source":5
		},
		{
			"sampler":0,
			"source":5
		},
		{
			"sampler":0,
			"source":5
		},
		{
			"sampler":0,
			"source":5
		},
		{
			"sampler":0,
			"source":5
		},
		{
			"sampler":0,
			"source":5
		},
		{
			"sampler":0,
			"source":5
		},
		{
			"sampler":0,
			"source":5
		},
		{
			"sampler":0,
			"source":5
		},
		{
			"sampler":0,
			"source":5
		},
		{
			"sampler":0,
			"source":5
		},
		{
			"sampler":0,
			"source":5
		},
		{
			"sampler":0,
			"source":5
		},
		{
			"sampler":0,
			"source":5
		},
		{
			"sampler":0,
			"source":5
		},
		{
			"sampler":0,
			"source":5
		},
		{
			"sampler":0,
			"source":5
		},
		{
			"sampler":0,
			"source":5
		},
		{
			"sampler":0,
			"source":5
		},
		{
			"sampler":0,
			"source":5
		},
		{
			"sampler":0,
			"source":5
		},
		{
			"sampler":0,
			"source":5
		},
		{
			"sampler":0,
			"source":5
		},
		{
			"sampler":0,
			"source":5
		},
		{
			"sampler":0,
			"source":5
		},
		{
			"sampler":0,
			"source":5
		},
		{
			"sampler":0,
			"source":5
		},
		{
			"sampler":0,
			"source":5
		},
		{
			"sampler":0,
			"source":5
		},
		{
			"sampler":0,
			"source":5
		},
		{
			"sampler":0,
			"source":5
		},
		{
			"sampler":0,
			"source":5
		},
		{
			"sampler":0,
			"source":5
		},
		{
			"sampler":0,
			"source":5
		}
	],
	"images":[
		{
			"mimeType":"image/jpeg",
			"name":"wall-tex-1",
			"uri":"wall-tex-1.jpg"
		},
		{
			"mimeType":"image/jpeg",
			"name":"tile_tantiles",
			"uri":"tile_tantiles.jpg"
		},
		{
			"mimeType":"image/jpeg",
			"name":"concrete01_diff",
			"uri":"concrete01_diff.jpg"
		},
		{
			"mimeType":"image/jpeg",
			"name":"wall-window",
			"uri":"wall-window.jpg"
		},
		{
			"mimeType":"image/jpeg",
			"name":"torch",
			"uri":"torch.jpg"
		},
		{
			"mimeType":"image/jpeg",
			"name":"ground-1",
			"uri":"ground-1.jpg"
		}
	],
	"accessors":[
		{
			"bufferView":0,
			"componentType":5126,
			"count":36,
			"max":[
				1.0000004768371582,
				4,
				0.7592017650604248
			],
			"min":[
				-1.0000004768371582,
				0.0008303970098495483,
				0.15000057220458984
			],
			"type":"VEC3"
		},
		{
			"bufferView":1,
			"componentType":5126,
			"count":36,
			"type":"VEC3"
		},
		{
			"bufferView":2,
			"componentType":5126,
			"count":36,
			"type":"VEC2"
		},
		{
			"bufferView":3,
			"componentType":5123,
			"count":54,
			"type":"SCALAR"
		},
		{
			"bufferView":4,
			"componentType":5126,
			"count":4,
			"max":[
				1,
				3.704742908477783,
				0.20000001788139343
			],
			"min":[
				-1,
				3.704742908477783,
				-1
			],
			"type":"VEC3"
		},
		{
			"bufferView":5,
			"componentType":5126,
			"count":4,
			"type":"VEC3"
		},
		{
			"bufferView":6,
			"componentType":5126,
			"count":4,
			"type":"VEC2"
		},
		{
			"bufferView":7,
			"componentType":5123,
			"count":6,
			"type":"SCALAR"
		},
		{
			"bufferView":8,
			"componentType":5126,
			"count":14,
			"max":[
				1,
				3.990000009536743,
				0.22000057995319366
			],
			"min":[
				-1,
				3.6892292499542236,
				-0.22975876927375793
			],
			"type":"VEC3"
		},
		{
			"bufferView":9,
			"componentType":5126,
			"count":14,
			"type":"VEC3"
		},
		{
			"bufferView":10,
			"componentType":5126,
			"count":14,
			"type":"VEC2"
		},
		{
			"bufferView":11,
			"componentType":5123,
			"count":18,
			"type":"SCALAR"
		},
		{
			"bufferView":12,
			"componentType":5126,
			"count":225,
			"max":[
				-5.806602954864502,
				3.6912105083465576,
				0.5316547751426697
			],
			"min":[
				-10.687332153320312,
				1.7203885316848755,
				0.17158371210098267
			],
			"type":"VEC3"
		},
		{
			"bufferView":13,
			"componentType":5126,
			"count":225,
			"type":"VEC3"
		},
		{
			"bufferView":14,
			"componentType":5126,
			"count":225,
			"type":"VEC2"
		},
		{
			"bufferView":15,
			"componentType":5123,
			"count":564,
			"type":"SCALAR"
		},
		{
			"bufferView":16,
			"componentType":5126,
			"count":652,
			"max":[
				-0.9999992847442627,
				4,
				0.9466380476951599
			],
			"min":[
				-11.414787292480469,
				-0.013920456171035767,
				0.021664351224899292
			],
			"type":"VEC3"
		},
		{
			"bufferView":17,
			"componentType":5126,
			"count":652,
			"type":"VEC3"
		},
		{
			"bufferView":18,
			"componentType":5126,
			"count":652,
			"type":"VEC2"
		},
		{
			"bufferView":19,
			"componentType":5123,
			"count":1494,
			"type":"SCALAR"
		},
		{
			"bufferView":20,
			"componentType":5126,
			"count":34,
			"max":[
				-1,
				3.990000009536743,
				0.22000057995319366
			],
			"min":[
				-11,
				3.6892292499542236,
				-1
			],
			"type":"VEC3"
		},
		{
			"bufferView":21,
			"componentType":5126,
			"count":34,
			"type":"VEC3"
		},
		{
			"bufferView":22,
			"componentType":5126,
			"count":34,
			"type":"VEC2"
		},
		{
			"bufferView":23,
			"componentType":5123,
			"count":48,
			"type":"SCALAR"
		},
		{
			"bufferView":24,
			"componentType":5126,
			"count":10,
			"max":[
				-1.720306396484375,
				3.065554141998291,
				0.43474292755126953
			],
			"min":[
				-2.279691696166992,
				1.9642422199249268,
				0.28095531463623047
			],
			"type":"VEC3"
		},
		{
			"bufferView":25,
			"componentType":5126,
			"count":10,
			"type":"VEC3"
		},
		{
			"bufferView":26,
			"componentType":5126,
			"count":10,
			"type":"VEC2"
		},
		{
			"bufferView":27,
			"componentType":5123,
			"count":24,
			"type":"SCALAR"
		},
		{
			"bufferView":28,
			"componentType":5126,
			"count":339,
			"max":[
				-1,
				3.990000009536743,
				0.5318761467933655
			],
			"min":[
				-11,
				1.7249054908752441,
				-0.22975876927375793
			],
			"type":"VEC3"
		},
		{
			"bufferView":29,
			"componentType":5126,
			"count":339,
			"type":"VEC3"
		},
		{
			"bufferView":30,
			"componentType":5126,
			"count":339,
			"type":"VEC2"
		},
		{
			"bufferView":31,
			"componentType":5123,
			"count":780,
			"type":"SCALAR"
		},
		{
			"bufferView":32,
			"componentType":5126,
			"count":652,
			"max":[
				9.414787292480469,
				4,
				0.9466390013694763
			],
			"min":[
				-1.0000004768371582,
				-0.013920458033680916,
				0.021665304899215698
			],
			"type":"VEC3"
		},
		{
			"bufferView":33,
			"componentType":5126,
			"count":652,
			"type":"VEC3"
		},
		{
			"bufferView":34,
			"componentType":5126,
			"count":652,
			"type":"VEC2"
		},
		{
			"bufferView":35,
			"componentType":5123,
			"count":1494,
			"type":"SCALAR"
		},
		{
			"bufferView":36,
			"componentType":5126,
			"count":34,
			"max":[
				9,
				3.990000009536743,
				0.22000153362751007
			],
			"min":[
				-1,
				3.6892292499542236,
				-1
			],
			"type":"VEC3"
		},
		{
			"bufferView":37,
			"componentType":5126,
			"count":34,
			"type":"VEC3"
		},
		{
			"bufferView":38,
			"componentType":5126,
			"count":34,
			"type":"VEC2"
		},
		{
			"bufferView":39,
			"componentType":5123,
			"count":48,
			"type":"SCALAR"
		},
		{
			"bufferView":40,
			"componentType":5126,
			"count":10,
			"max":[
				0.279693603515625,
				3.065554141998291,
				0.43474292755126953
			],
			"min":[
				-0.2796916961669922,
				1.9642422199249268,
				0.28095531463623047
			],
			"type":"VEC3"
		},
		{
			"bufferView":41,
			"componentType":5126,
			"count":10,
			"type":"VEC3"
		},
		{
			"bufferView":42,
			"componentType":5126,
			"count":10,
			"type":"VEC2"
		},
		{
			"bufferView":43,
			"componentType":5126,
			"count":339,
			"max":[
				9,
				3.990000009536743,
				0.5318761467933655
			],
			"min":[
				-1,
				1.7249054908752441,
				-0.22975876927375793
			],
			"type":"VEC3"
		},
		{
			"bufferView":44,
			"componentType":5126,
			"count":339,
			"type":"VEC3"
		},
		{
			"bufferView":45,
			"componentType":5126,
			"count":339,
			"type":"VEC2"
		},
		{
			"bufferView":46,
			"componentType":5123,
			"count":780,
			"type":"SCALAR"
		},
		{
			"bufferView":47,
			"componentType":5126,
			"count":225,
			"max":[
				8.687332153320312,
				3.6912105083465576,
				0.5316557288169861
			],
			"min":[
				3.8093690872192383,
				1.7203885316848755,
				0.17158466577529907
			],
			"type":"VEC3"
		},
		{
			"bufferView":48,
			"componentType":5126,
			"count":225,
			"type":"VEC3"
		},
		{
			"bufferView":49,
			"componentType":5126,
			"count":225,
			"type":"VEC2"
		},
		{
			"bufferView":50,
			"componentType":5123,
			"count":564,
			"type":"SCALAR"
		},
		{
			"bufferView":51,
			"componentType":5126,
			"count":36,
			"max":[
				-0.9999995231628418,
				4,
				0.7592017650604248
			],
			"min":[
				-3.000000476837158,
				0.0008303970098495483,
				0.15000057220458984
			],
			"type":"VEC3"
		},
		{
			"bufferView":52,
			"componentType":5126,
			"count":36,
			"type":"VEC3"
		},
		{
			"bufferView":53,
			"componentType":5126,
			"count":36,
			"type":"VEC2"
		},
		{
			"bufferView":54,
			"componentType":5126,
			"count":4,
			"max":[
				-1,
				3.704742908477783,
				0.20000001788139343
			],
			"min":[
				-3,
				3.704742908477783,
				-1
			],
			"type":"VEC3"
		},
		{
			"bufferView":55,
			"componentType":5126,
			"count":4,
			"type":"VEC3"
		},
		{
			"bufferView":56,
			"componentType":5126,
			"count":4,
			"type":"VEC2"
		},
		{
			"bufferView":57,
			"componentType":5126,
			"count":14,
			"max":[
				-1,
				3.990000009536743,
				0.22000057995319366
			],
			"min":[
				-3,
				3.6892292499542236,
				-0.22975876927375793
			],
			"type":"VEC3"
		},
		{
			"bufferView":58,
			"componentType":5126,
			"count":14,
			"type":"VEC3"
		},
		{
			"bufferView":59,
			"componentType":5126,
			"count":14,
			"type":"VEC2"
		},
		{
			"bufferView":60,
			"componentType":5126,
			"count":4,
			"max":[
				2,
				0,
				0
			],
			"min":[
				0,
				0,
				-2
			],
			"type":"VEC3"
		},
		{
			"bufferView":61,
			"componentType":5126,
			"count":4,
			"type":"VEC3"
		},
		{
			"bufferView":62,
			"componentType":5126,
			"count":4,
			"type":"VEC2"
		},
		{
			"bufferView":63,
			"componentType":5123,
			"count":6,
			"type":"SCALAR"
		},
		{
			"bufferView":64,
			"componentType":5126,
			"count":4,
			"max":[
				-8,
				0,
				-8
			],
			"min":[
				-10,
				0,
				-10
			],
			"type":"VEC3"
		},
		{
			"bufferView":65,
			"componentType":5126,
			"count":4,
			"type":"VEC3"
		},
		{
			"bufferView":66,
			"componentType":5126,
			"count":4,
			"type":"VEC2"
		},
		{
			"bufferView":67,
			"componentType":5126,
			"count":4,
			"max":[
				-8,
				0,
				-6
			],
			"min":[
				-10,
				0,
				-8
			],
			"type":"VEC3"
		},
		{
			"bufferView":68,
			"componentType":5126,
			"count":4,
			"type":"VEC3"
		},
		{
			"bufferView":69,
			"componentType":5126,
			"count":4,
			"type":"VEC2"
		},
		{
			"bufferView":70,
			"componentType":5126,
			"count":4,
			"max":[
				-8,
				0,
				-4
			],
			"min":[
				-10,
				0,
				-6
			],
			"type":"VEC3"
		},
		{
			"bufferView":71,
			"componentType":5126,
			"count":4,
			"type":"VEC3"
		},
		{
			"bufferView":72,
			"componentType":5126,
			"count":4,
			"type":"VEC2"
		},
		{
			"bufferView":73,
			"componentType":5126,
			"count":4,
			"max":[
				-8,
				0,
				2
			],
			"min":[
				-10,
				0,
				0
			],
			"type":"VEC3"
		},
		{
			"bufferView":74,
			"componentType":5126,
			"count":4,
			"type":"VEC3"
		},
		{
			"bufferView":75,
			"componentType":5126,
			"count":4,
			"type":"VEC2"
		},
		{
			"bufferView":76,
			"componentType":5126,
			"count":4,
			"max":[
				-8,
				0,
				0
			],
			"min":[
				-10,
				0,
				-2
			],
			"type":"VEC3"
		},
		{
			"bufferView":77,
			"componentType":5126,
			"count":4,
			"type":"VEC3"
		},
		{
			"bufferView":78,
			"componentType":5126,
			"count":4,
			"type":"VEC2"
		},
		{
			"bufferView":79,
			"componentType":5126,
			"count":4,
			"max":[
				-8,
				0,
				-2
			],
			"min":[
				-10,
				0,
				-4
			],
			"type":"VEC3"
		},
		{
			"bufferView":80,
			"componentType":5126,
			"count":4,
			"type":"VEC3"
		},
		{
			"bufferView":81,
			"componentType":5126,
			"count":4,
			"type":"VEC2"
		},
		{
			"bufferView":82,
			"componentType":5126,
			"count":4,
			"max":[
				-8,
				0,
				4
			],
			"min":[
				-10,
				0,
				2
			],
			"type":"VEC3"
		},
		{
			"bufferView":83,
			"componentType":5126,
			"count":4,
			"type":"VEC3"
		},
		{
			"bufferView":84,
			"componentType":5126,
			"count":4,
			"type":"VEC2"
		},
		{
			"bufferView":85,
			"componentType":5126,
			"count":4,
			"max":[
				-8,
				0,
				2
			],
			"min":[
				-10,
				0,
				0
			],
			"type":"VEC3"
		},
		{
			"bufferView":86,
			"componentType":5126,
			"count":4,
			"type":"VEC3"
		},
		{
			"bufferView":87,
			"componentType":5126,
			"count":4,
			"type":"VEC2"
		},
		{
			"bufferView":88,
			"componentType":5126,
			"count":4,
			"max":[
				-6,
				0,
				2
			],
			"min":[
				-8,
				0,
				0
			],
			"type":"VEC3"
		},
		{
			"bufferView":89,
			"componentType":5126,
			"count":4,
			"type":"VEC3"
		},
		{
			"bufferView":90,
			"componentType":5126,
			"count":4,
			"type":"VEC2"
		},
		{
			"bufferView":91,
			"componentType":5126,
			"count":4,
			"max":[
				-6,
				0,
				4
			],
			"min":[
				-8,
				0,
				2
			],
			"type":"VEC3"
		},
		{
			"bufferView":92,
			"componentType":5126,
			"count":4,
			"type":"VEC3"
		},
		{
			"bufferView":93,
			"componentType":5126,
			"count":4,
			"type":"VEC2"
		},
		{
			"bufferView":94,
			"componentType":5126,
			"count":4,
			"max":[
				-6,
				0,
				-2
			],
			"min":[
				-8,
				0,
				-4
			],
			"type":"VEC3"
		},
		{
			"bufferView":95,
			"componentType":5126,
			"count":4,
			"type":"VEC3"
		},
		{
			"bufferView":96,
			"componentType":5126,
			"count":4,
			"type":"VEC2"
		},
		{
			"bufferView":97,
			"componentType":5126,
			"count":4,
			"max":[
				-6,
				0,
				0
			],
			"min":[
				-8,
				0,
				-2
			],
			"type":"VEC3"
		},
		{
			"bufferView":98,
			"componentType":5126,
			"count":4,
			"type":"VEC3"
		},
		{
			"bufferView":99,
			"componentType":5126,
			"count":4,
			"type":"VEC2"
		},
		{
			"bufferView":100,
			"componentType":5126,
			"count":4,
			"max":[
				-6,
				0,
				-4
			],
			"min":[
				-8,
				0,
				-6
			],
			"type":"VEC3"
		},
		{
			"bufferView":101,
			"componentType":5126,
			"count":4,
			"type":"VEC3"
		},
		{
			"bufferView":102,
			"componentType":5126,
			"count":4,
			"type":"VEC2"
		},
		{
			"bufferView":103,
			"componentType":5126,
			"count":4,
			"max":[
				-6,
				0,
				-6
			],
			"min":[
				-8,
				0,
				-8
			],
			"type":"VEC3"
		},
		{
			"bufferView":104,
			"componentType":5126,
			"count":4,
			"type":"VEC3"
		},
		{
			"bufferView":105,
			"componentType":5126,
			"count":4,
			"type":"VEC2"
		},
		{
			"bufferView":106,
			"componentType":5126,
			"count":4,
			"max":[
				-6,
				0,
				-8
			],
			"min":[
				-8,
				0,
				-10
			],
			"type":"VEC3"
		},
		{
			"bufferView":107,
			"componentType":5126,
			"count":4,
			"type":"VEC3"
		},
		{
			"bufferView":108,
			"componentType":5126,
			"count":4,
			"type":"VEC2"
		},
		{
			"bufferView":109,
			"componentType":5126,
			"count":4,
			"max":[
				-4,
				0,
				2
			],
			"min":[
				-6,
				0,
				0
			],
			"type":"VEC3"
		},
		{
			"bufferView":110,
			"componentType":5126,
			"count":4,
			"type":"VEC3"
		},
		{
			"bufferView":111,
			"componentType":5126,
			"count":4,
			"type":"VEC2"
		},
		{
			"bufferView":112,
			"componentType":5126,
			"count":4,
			"max":[
				-4,
				0,
				4
			],
			"min":[
				-6,
				0,
				2
			],
			"type":"VEC3"
		},
		{
			"bufferView":113,
			"componentType":5126,
			"count":4,
			"type":"VEC3"
		},
		{
			"bufferView":114,
			"componentType":5126,
			"count":4,
			"type":"VEC2"
		},
		{
			"bufferView":115,
			"componentType":5126,
			"count":4,
			"max":[
				-4,
				0,
				-2
			],
			"min":[
				-6,
				0,
				-4
			],
			"type":"VEC3"
		},
		{
			"bufferView":116,
			"componentType":5126,
			"count":4,
			"type":"VEC3"
		},
		{
			"bufferView":117,
			"componentType":5126,
			"count":4,
			"type":"VEC2"
		},
		{
			"bufferView":118,
			"componentType":5126,
			"count":4,
			"max":[
				-4,
				0,
				0
			],
			"min":[
				-6,
				0,
				-2
			],
			"type":"VEC3"
		},
		{
			"bufferView":119,
			"componentType":5126,
			"count":4,
			"type":"VEC3"
		},
		{
			"bufferView":120,
			"componentType":5126,
			"count":4,
			"type":"VEC2"
		},
		{
			"bufferView":121,
			"componentType":5126,
			"count":4,
			"max":[
				-3.9954833984375,
				0,
				2
			],
			"min":[
				-5.9954833984375,
				0,
				0
			],
			"type":"VEC3"
		},
		{
			"bufferView":122,
			"componentType":5126,
			"count":4,
			"type":"VEC3"
		},
		{
			"bufferView":123,
			"componentType":5126,
			"count":4,
			"type":"VEC2"
		},
		{
			"bufferView":124,
			"componentType":5126,
			"count":4,
			"max":[
				-4,
				0,
				-4
			],
			"min":[
				-6,
				0,
				-6
			],
			"type":"VEC3"
		},
		{
			"bufferView":125,
			"componentType":5126,
			"count":4,
			"type":"VEC3"
		},
		{
			"bufferView":126,
			"componentType":5126,
			"count":4,
			"type":"VEC2"
		},
		{
			"bufferView":127,
			"componentType":5126,
			"count":4,
			"max":[
				-4,
				0,
				-6
			],
			"min":[
				-6,
				0,
				-8
			],
			"type":"VEC3"
		},
		{
			"bufferView":128,
			"componentType":5126,
			"count":4,
			"type":"VEC3"
		},
		{
			"bufferView":129,
			"componentType":5126,
			"count":4,
			"type":"VEC2"
		},
		{
			"bufferView":130,
			"componentType":5126,
			"count":4,
			"max":[
				-4,
				0,
				-8
			],
			"min":[
				-6,
				0,
				-10
			],
			"type":"VEC3"
		},
		{
			"bufferView":131,
			"componentType":5126,
			"count":4,
			"type":"VEC3"
		},
		{
			"bufferView":132,
			"componentType":5126,
			"count":4,
			"type":"VEC2"
		},
		{
			"bufferView":133,
			"componentType":5126,
			"count":4,
			"max":[
				-10,
				0,
				2
			],
			"min":[
				-12,
				0,
				0
			],
			"type":"VEC3"
		},
		{
			"bufferView":134,
			"componentType":5126,
			"count":4,
			"type":"VEC3"
		},
		{
			"bufferView":135,
			"componentType":5126,
			"count":4,
			"type":"VEC2"
		},
		{
			"bufferView":136,
			"componentType":5126,
			"count":4,
			"max":[
				-10,
				0,
				4
			],
			"min":[
				-12,
				0,
				2
			],
			"type":"VEC3"
		},
		{
			"bufferView":137,
			"componentType":5126,
			"count":4,
			"type":"VEC3"
		},
		{
			"bufferView":138,
			"componentType":5126,
			"count":4,
			"type":"VEC2"
		},
		{
			"bufferView":139,
			"componentType":5126,
			"count":4,
			"max":[
				-10,
				0,
				-2
			],
			"min":[
				-12,
				0,
				-4
			],
			"type":"VEC3"
		},
		{
			"bufferView":140,
			"componentType":5126,
			"count":4,
			"type":"VEC3"
		},
		{
			"bufferView":141,
			"componentType":5126,
			"count":4,
			"type":"VEC2"
		},
		{
			"bufferView":142,
			"componentType":5126,
			"count":4,
			"max":[
				-10,
				0,
				0
			],
			"min":[
				-12,
				0,
				-2
			],
			"type":"VEC3"
		},
		{
			"bufferView":143,
			"componentType":5126,
			"count":4,
			"type":"VEC3"
		},
		{
			"bufferView":144,
			"componentType":5126,
			"count":4,
			"type":"VEC2"
		},
		{
			"bufferView":145,
			"componentType":5126,
			"count":4,
			"max":[
				-10,
				0,
				2
			],
			"min":[
				-12,
				0,
				0
			],
			"type":"VEC3"
		},
		{
			"bufferView":146,
			"componentType":5126,
			"count":4,
			"type":"VEC3"
		},
		{
			"bufferView":147,
			"componentType":5126,
			"count":4,
			"type":"VEC2"
		},
		{
			"bufferView":148,
			"componentType":5126,
			"count":4,
			"max":[
				-10,
				0,
				-4
			],
			"min":[
				-12,
				0,
				-6
			],
			"type":"VEC3"
		},
		{
			"bufferView":149,
			"componentType":5126,
			"count":4,
			"type":"VEC3"
		},
		{
			"bufferView":150,
			"componentType":5126,
			"count":4,
			"type":"VEC2"
		},
		{
			"bufferView":151,
			"componentType":5126,
			"count":4,
			"max":[
				-10,
				0,
				-6
			],
			"min":[
				-12,
				0,
				-8
			],
			"type":"VEC3"
		},
		{
			"bufferView":152,
			"componentType":5126,
			"count":4,
			"type":"VEC3"
		},
		{
			"bufferView":153,
			"componentType":5126,
			"count":4,
			"type":"VEC2"
		},
		{
			"bufferView":154,
			"componentType":5126,
			"count":4,
			"max":[
				-10,
				0,
				-8
			],
			"min":[
				-12,
				0,
				-10
			],
			"type":"VEC3"
		},
		{
			"bufferView":155,
			"componentType":5126,
			"count":4,
			"type":"VEC3"
		},
		{
			"bufferView":156,
			"componentType":5126,
			"count":4,
			"type":"VEC2"
		},
		{
			"bufferView":157,
			"componentType":5126,
			"count":4,
			"max":[
				-2,
				0,
				2
			],
			"min":[
				-4,
				0,
				0
			],
			"type":"VEC3"
		},
		{
			"bufferView":158,
			"componentType":5126,
			"count":4,
			"type":"VEC3"
		},
		{
			"bufferView":159,
			"componentType":5126,
			"count":4,
			"type":"VEC2"
		},
		{
			"bufferView":160,
			"componentType":5126,
			"count":4,
			"max":[
				-2,
				0,
				4
			],
			"min":[
				-4,
				0,
				2
			],
			"type":"VEC3"
		},
		{
			"bufferView":161,
			"componentType":5126,
			"count":4,
			"type":"VEC3"
		},
		{
			"bufferView":162,
			"componentType":5126,
			"count":4,
			"type":"VEC2"
		},
		{
			"bufferView":163,
			"componentType":5126,
			"count":4,
			"max":[
				-2,
				0,
				-2
			],
			"min":[
				-4,
				0,
				-4
			],
			"type":"VEC3"
		},
		{
			"bufferView":164,
			"componentType":5126,
			"count":4,
			"type":"VEC3"
		},
		{
			"bufferView":165,
			"componentType":5126,
			"count":4,
			"type":"VEC2"
		},
		{
			"bufferView":166,
			"componentType":5126,
			"count":4,
			"max":[
				-2,
				0,
				0
			],
			"min":[
				-4,
				0,
				-2
			],
			"type":"VEC3"
		},
		{
			"bufferView":167,
			"componentType":5126,
			"count":4,
			"type":"VEC3"
		},
		{
			"bufferView":168,
			"componentType":5126,
			"count":4,
			"type":"VEC2"
		},
		{
			"bufferView":169,
			"componentType":5126,
			"count":4,
			"max":[
				-2.0181045532226562,
				0,
				2
			],
			"min":[
				-4.018104553222656,
				0,
				0
			],
			"type":"VEC3"
		},
		{
			"bufferView":170,
			"componentType":5126,
			"count":4,
			"type":"VEC3"
		},
		{
			"bufferView":171,
			"componentType":5126,
			"count":4,
			"type":"VEC2"
		},
		{
			"bufferView":172,
			"componentType":5126,
			"count":4,
			"max":[
				-2,
				0,
				-4
			],
			"min":[
				-4,
				0,
				-6
			],
			"type":"VEC3"
		},
		{
			"bufferView":173,
			"componentType":5126,
			"count":4,
			"type":"VEC3"
		},
		{
			"bufferView":174,
			"componentType":5126,
			"count":4,
			"type":"VEC2"
		},
		{
			"bufferView":175,
			"componentType":5126,
			"count":4,
			"max":[
				-2,
				0,
				-6
			],
			"min":[
				-4,
				0,
				-8
			],
			"type":"VEC3"
		},
		{
			"bufferView":176,
			"componentType":5126,
			"count":4,
			"type":"VEC3"
		},
		{
			"bufferView":177,
			"componentType":5126,
			"count":4,
			"type":"VEC2"
		},
		{
			"bufferView":178,
			"componentType":5126,
			"count":4,
			"max":[
				-2,
				0,
				-8
			],
			"min":[
				-4,
				0,
				-10
			],
			"type":"VEC3"
		},
		{
			"bufferView":179,
			"componentType":5126,
			"count":4,
			"type":"VEC3"
		},
		{
			"bufferView":180,
			"componentType":5126,
			"count":4,
			"type":"VEC2"
		},
		{
			"bufferView":181,
			"componentType":5126,
			"count":4,
			"max":[
				0,
				0,
				2
			],
			"min":[
				-2,
				0,
				0
			],
			"type":"VEC3"
		},
		{
			"bufferView":182,
			"componentType":5126,
			"count":4,
			"type":"VEC3"
		},
		{
			"bufferView":183,
			"componentType":5126,
			"count":4,
			"type":"VEC2"
		},
		{
			"bufferView":184,
			"componentType":5126,
			"count":4,
			"max":[
				0,
				0,
				4
			],
			"min":[
				-2,
				0,
				2
			],
			"type":"VEC3"
		},
		{
			"bufferView":185,
			"componentType":5126,
			"count":4,
			"type":"VEC3"
		},
		{
			"bufferView":186,
			"componentType":5126,
			"count":4,
			"type":"VEC2"
		},
		{
			"bufferView":187,
			"componentType":5126,
			"count":4,
			"max":[
				0,
				0,
				-2
			],
			"min":[
				-2,
				0,
				-4
			],
			"type":"VEC3"
		},
		{
			"bufferView":188,
			"componentType":5126,
			"count":4,
			"type":"VEC3"
		},
		{
			"bufferView":189,
			"componentType":5126,
			"count":4,
			"type":"VEC2"
		},
		{
			"bufferView":190,
			"componentType":5126,
			"count":4,
			"max":[
				0,
				0,
				0
			],
			"min":[
				-2,
				0,
				-2
			],
			"type":"VEC3"
		},
		{
			"bufferView":191,
			"componentType":5126,
			"count":4,
			"type":"VEC3"
		},
		{
			"bufferView":192,
			"componentType":5126,
			"count":4,
			"type":"VEC2"
		},
		{
			"bufferView":193,
			"componentType":5126,
			"count":4,
			"max":[
				0,
				0,
				-4
			],
			"min":[
				-2,
				0,
				-6
			],
			"type":"VEC3"
		},
		{
			"bufferView":194,
			"componentType":5126,
			"count":4,
			"type":"VEC3"
		},
		{
			"bufferView":195,
			"componentType":5126,
			"count":4,
			"type":"VEC2"
		},
		{
			"bufferView":196,
			"componentType":5126,
			"count":4,
			"max":[
				0,
				0,
				-6
			],
			"min":[
				-2,
				0,
				-8
			],
			"type":"VEC3"
		},
		{
			"bufferView":197,
			"componentType":5126,
			"count":4,
			"type":"VEC3"
		},
		{
			"bufferView":198,
			"componentType":5126,
			"count":4,
			"type":"VEC2"
		},
		{
			"bufferView":199,
			"componentType":5126,
			"count":4,
			"max":[
				0,
				0,
				-8
			],
			"min":[
				-2,
				0,
				-10
			],
			"type":"VEC3"
		},
		{
			"bufferView":200,
			"componentType":5126,
			"count":4,
			"type":"VEC3"
		},
		{
			"bufferView":201,
			"componentType":5126,
			"count":4,
			"type":"VEC2"
		},
		{
			"bufferView":202,
			"componentType":5126,
			"count":4,
			"max":[
				2,
				0,
				-8
			],
			"min":[
				0,
				0,
				-10
			],
			"type":"VEC3"
		},
		{
			"bufferView":203,
			"componentType":5126,
			"count":4,
			"type":"VEC3"
		},
		{
			"bufferView":204,
			"componentType":5126,
			"count":4,
			"type":"VEC2"
		},
		{
			"bufferView":205,
			"componentType":5126,
			"count":4,
			"max":[
				2,
				0,
				-6
			],
			"min":[
				0,
				0,
				-8
			],
			"type":"VEC3"
		},
		{
			"bufferView":206,
			"componentType":5126,
			"count":4,
			"type":"VEC3"
		},
		{
			"bufferView":207,
			"componentType":5126,
			"count":4,
			"type":"VEC2"
		},
		{
			"bufferView":208,
			"componentType":5126,
			"count":4,
			"max":[
				2,
				0,
				-4
			],
			"min":[
				0,
				0,
				-6
			],
			"type":"VEC3"
		},
		{
			"bufferView":209,
			"componentType":5126,
			"count":4,
			"type":"VEC3"
		},
		{
			"bufferView":210,
			"componentType":5126,
			"count":4,
			"type":"VEC2"
		},
		{
			"bufferView":211,
			"componentType":5126,
			"count":4,
			"max":[
				2,
				0,
				-2
			],
			"min":[
				0,
				0,
				-4
			],
			"type":"VEC3"
		},
		{
			"bufferView":212,
			"componentType":5126,
			"count":4,
			"type":"VEC3"
		},
		{
			"bufferView":213,
			"componentType":5126,
			"count":4,
			"type":"VEC2"
		},
		{
			"bufferView":214,
			"componentType":5126,
			"count":4,
			"max":[
				2,
				0,
				4
			],
			"min":[
				0,
				0,
				2
			],
			"type":"VEC3"
		},
		{
			"bufferView":215,
			"componentType":5126,
			"count":4,
			"type":"VEC3"
		},
		{
			"bufferView":216,
			"componentType":5126,
			"count":4,
			"type":"VEC2"
		},
		{
			"bufferView":217,
			"componentType":5126,
			"count":4,
			"max":[
				2,
				0,
				2
			],
			"min":[
				0,
				0,
				0
			],
			"type":"VEC3"
		},
		{
			"bufferView":218,
			"componentType":5126,
			"count":4,
			"type":"VEC3"
		},
		{
			"bufferView":219,
			"componentType":5126,
			"count":4,
			"type":"VEC2"
		},
		{
			"bufferView":220,
			"componentType":5126,
			"count":48,
			"max":[
				5.897727966308594,
				4.4056196212768555,
				26.67017364501953
			],
			"min":[
				-6.408656597137451,
				-4.4056196212768555,
				-1.192997932434082
			],
			"type":"VEC3"
		},
		{
			"bufferView":221,
			"componentType":5126,
			"count":48,
			"type":"VEC3"
		},
		{
			"bufferView":222,
			"componentType":5126,
			"count":48,
			"type":"VEC2"
		},
		{
			"bufferView":223,
			"componentType":5123,
			"count":72,
			"type":"SCALAR"
		}
	],
	"bufferViews":[
		{
			"buffer":0,
			"byteLength":432,
			"byteOffset":0,
			"target":34962
		},
		{
			"buffer":0,
			"byteLength":432,
			"byteOffset":432,
			"target":34962
		},
		{
			"buffer":0,
			"byteLength":288,
			"byteOffset":864,
			"target":34962
		},
		{
			"buffer":0,
			"byteLength":108,
			"byteOffset":1152,
			"target":34963
		},
		{
			"buffer":0,
			"byteLength":48,
			"byteOffset":1260,
			"target":34962
		},
		{
			"buffer":0,
			"byteLength":48,
			"byteOffset":1308,
			"target":34962
		},
		{
			"buffer":0,
			"byteLength":32,
			"byteOffset":1356,
			"target":34962
		},
		{
			"buffer":0,
			"byteLength":12,
			"byteOffset":1388,
			"target":34963
		},
		{
			"buffer":0,
			"byteLength":168,
			"byteOffset":1400,
			"target":34962
		},
		{
			"buffer":0,
			"byteLength":168,
			"byteOffset":1568,
			"target":34962
		},
		{
			"buffer":0,
			"byteLength":112,
			"byteOffset":1736,
			"target":34962
		},
		{
			"buffer":0,
			"byteLength":36,
			"byteOffset":1848,
			"target":34963
		},
		{
			"buffer":0,
			"byteLength":2700,
			"byteOffset":1884,
			"target":34962
		},
		{
			"buffer":0,
			"byteLength":2700,
			"byteOffset":4584,
			"target":34962
		},
		{
			"buffer":0,
			"byteLength":1800,
			"byteOffset":7284,
			"target":34962
		},
		{
			"buffer":0,
			"byteLength":1128,
			"byteOffset":9084,
			"target":34963
		},
		{
			"buffer":0,
			"byteLength":7824,
			"byteOffset":10212,
			"target":34962
		},
		{
			"buffer":0,
			"byteLength":7824,
			"byteOffset":18036,
			"target":34962
		},
		{
			"buffer":0,
			"byteLength":5216,
			"byteOffset":25860,
			"target":34962
		},
		{
			"buffer":0,
			"byteLength":2988,
			"byteOffset":31076,
			"target":34963
		},
		{
			"buffer":0,
			"byteLength":408,
			"byteOffset":34064,
			"target":34962
		},
		{
			"buffer":0,
			"byteLength":408,
			"byteOffset":34472,
			"target":34962
		},
		{
			"buffer":0,
			"byteLength":272,
			"byteOffset":34880,
			"target":34962
		},
		{
			"buffer":0,
			"byteLength":96,
			"byteOffset":35152,
			"target":34963
		},
		{
			"buffer":0,
			"byteLength":120,
			"byteOffset":35248,
			"target":34962
		},
		{
			"buffer":0,
			"byteLength":120,
			"byteOffset":35368,
			"target":34962
		},
		{
			"buffer":0,
			"byteLength":80,
			"byteOffset":35488,
			"target":34962
		},
		{
			"buffer":0,
			"byteLength":48,
			"byteOffset":35568,
			"target":34963
		},
		{
			"buffer":0,
			"byteLength":4068,
			"byteOffset":35616,
			"target":34962
		},
		{
			"buffer":0,
			"byteLength":4068,
			"byteOffset":39684,
			"target":34962
		},
		{
			"buffer":0,
			"byteLength":2712,
			"byteOffset":43752,
			"target":34962
		},
		{
			"buffer":0,
			"byteLength":1560,
			"byteOffset":46464,
			"target":34963
		},
		{
			"buffer":0,
			"byteLength":7824,
			"byteOffset":48024,
			"target":34962
		},
		{
			"buffer":0,
			"byteLength":7824,
			"byteOffset":55848,
			"target":34962
		},
		{
			"buffer":0,
			"byteLength":5216,
			"byteOffset":63672,
			"target":34962
		},
		{
			"buffer":0,
			"byteLength":2988,
			"byteOffset":68888,
			"target":34963
		},
		{
			"buffer":0,
			"byteLength":408,
			"byteOffset":71876,
			"target":34962
		},
		{
			"buffer":0,
			"byteLength":408,
			"byteOffset":72284,
			"target":34962
		},
		{
			"buffer":0,
			"byteLength":272,
			"byteOffset":72692,
			"target":34962
		},
		{
			"buffer":0,
			"byteLength":96,
			"byteOffset":72964,
			"target":34963
		},
		{
			"buffer":0,
			"byteLength":120,
			"byteOffset":73060,
			"target":34962
		},
		{
			"buffer":0,
			"byteLength":120,
			"byteOffset":73180,
			"target":34962
		},
		{
			"buffer":0,
			"byteLength":80,
			"byteOffset":73300,
			"target":34962
		},
		{
			"buffer":0,
			"byteLength":4068,
			"byteOffset":73380,
			"target":34962
		},
		{
			"buffer":0,
			"byteLength":4068,
			"byteOffset":77448,
			"target":34962
		},
		{
			"buffer":0,
			"byteLength":2712,
			"byteOffset":81516,
			"target":34962
		},
		{
			"buffer":0,
			"byteLength":1560,
			"byteOffset":84228,
			"target":34963
		},
		{
			"buffer":0,
			"byteLength":2700,
			"byteOffset":85788,
			"target":34962
		},
		{
			"buffer":0,
			"byteLength":2700,
			"byteOffset":88488,
			"target":34962
		},
		{
			"buffer":0,
			"byteLength":1800,
			"byteOffset":91188,
			"target":34962
		},
		{
			"buffer":0,
			"byteLength":1128,
			"byteOffset":92988,
			"target":34963
		},
		{
			"buffer":0,
			"byteLength":432,
			"byteOffset":94116,
			"target":34962
		},
		{
			"buffer":0,
			"byteLength":432,
			"byteOffset":94548,
			"target":34962
		},
		{
			"buffer":0,
			"byteLength":288,
			"byteOffset":94980,
			"target":34962
		},
		{
			"buffer":0,
			"byteLength":48,
			"byteOffset":95268,
			"target":34962
		},
		{
			"buffer":0,
			"byteLength":48,
			"byteOffset":95316,
			"target":34962
		},
		{
			"buffer":0,
			"byteLength":32,
			"byteOffset":95364,
			"target":34962
		},
		{
			"buffer":0,
			"byteLength":168,
			"byteOffset":95396,
			"target":34962
		},
		{
			"buffer":0,
			"byteLength":168,
			"byteOffset":95564,
			"target":34962
		},
		{
			"buffer":0,
			"byteLength":112,
			"byteOffset":95732,
			"target":34962
		},
		{
			"buffer":0,
			"byteLength":48,
			"byteOffset":95844,
			"target":34962
		},
		{
			"buffer":0,
			"byteLength":48,
			"byteOffset":95892,
			"target":34962
		},
		{
			"buffer":0,
			"byteLength":32,
			"byteOffset":95940,
			"target":34962
		},
		{
			"buffer":0,
			"byteLength":12,
			"byteOffset":95972,
			"target":34963
		},
		{
			"buffer":0,
			"byteLength":48,
			"byteOffset":95984,
			"target":34962
		},
		{
			"buffer":0,
			"byteLength":48,
			"byteOffset":96032,
			"target":34962
		},
		{
			"buffer":0,
			"byteLength":32,
			"byteOffset":96080,
			"target":34962
		},
		{
			"buffer":0,
			"byteLength":48,
			"byteOffset":96112,
			"target":34962
		},
		{
			"buffer":0,
			"byteLength":48,
			"byteOffset":96160,
			"target":34962
		},
		{
			"buffer":0,
			"byteLength":32,
			"byteOffset":96208,
			"target":34962
		},
		{
			"buffer":0,
			"byteLength":48,
			"byteOffset":96240,
			"target":34962
		},
		{
			"buffer":0,
			"byteLength":48,
			"byteOffset":96288,
			"target":34962
		},
		{
			"buffer":0,
			"byteLength":32,
			"byteOffset":96336,
			"target":34962
		},
		{
			"buffer":0,
			"byteLength":48,
			"byteOffset":96368,
			"target":34962
		},
		{
			"buffer":0,
			"byteLength":48,
			"byteOffset":96416,
			"target":34962
		},
		{
			"buffer":0,
			"byteLength":32,
			"byteOffset":96464,
			"target":34962
		},
		{
			"buffer":0,
			"byteLength":48,
			"byteOffset":96496,
			"target":34962
		},
		{
			"buffer":0,
			"byteLength":48,
			"byteOffset":96544,
			"target":34962
		},
		{
			"buffer":0,
			"byteLength":32,
			"byteOffset":96592,
			"target":34962
		},
		{
			"buffer":0,
			"byteLength":48,
			"byteOffset":96624,
			"target":34962
		},
		{
			"buffer":0,
			"byteLength":48,
			"byteOffset":96672,
			"target":34962
		},
		{
			"buffer":0,
			"byteLength":32,
			"byteOffset":96720,
			"target":34962
		},
		{
			"buffer":0,
			"byteLength":48,
			"byteOffset":96752,
			"target":34962
		},
		{
			"buffer":0,
			"byteLength":48,
			"byteOffset":96800,
			"target":34962
		},
		{
			"buffer":0,
			"byteLength":32,
			"byteOffset":96848,
			"target":34962
		},
		{
			"buffer":0,
			"byteLength":48,
			"byteOffset":96880,
			"target":34962
		},
		{
			"buffer":0,
			"byteLength":48,
			"byteOffset":96928,
			"target":34962
		},
		{
			"buffer":0,
			"byteLength":32,
			"byteOffset":96976,
			"target":34962
		},
		{
			"buffer":0,
			"byteLength":48,
			"byteOffset":97008,
			"target":34962
		},
		{
			"buffer":0,
			"byteLength":48,
			"byteOffset":97056,
			"target":34962
		},
		{
			"buffer":0,
			"byteLength":32,
			"byteOffset":97104,
			"target":34962
		},
		{
			"buffer":0,
			"byteLength":48,
			"byteOffset":97136,
			"target":34962
		},
		{
			"buffer":0,
			"byteLength":48,
			"byteOffset":97184,
			"target":34962
		},
		{
			"buffer":0,
			"byteLength":32,
			"byteOffset":97232,
			"target":34962
		},
		{
			"buffer":0,
			"byteLength":48,
			"byteOffset":97264,
			"target":34962
		},
		{
			"buffer":0,
			"byteLength":48,
			"byteOffset":97312,
			"target":34962
		},
		{
			"buffer":0,
			"byteLength":32,
			"byteOffset":97360,
			"target":34962
		},
		{
			"buffer":0,
			"byteLength":48,
			"byteOffset":97392,
			"target":34962
		},
		{
			"buffer":0,
			"byteLength":48,
			"byteOffset":97440,
			"target":34962
		},
		{
			"buffer":0,
			"byteLength":32,
			"byteOffset":97488,
			"target":34962
		},
		{
			"buffer":0,
			"byteLength":48,
			"byteOffset":97520,
			"target":34962
		},
		{
			"buffer":0,
			"byteLength":48,
			"byteOffset":97568,
			"target":34962
		},
		{
			"buffer":0,
			"byteLength":32,
			"byteOffset":97616,
			"target":34962
		},
		{
			"buffer":0,
			"byteLength":48,
			"byteOffset":97648,
			"target":34962
		},
		{
			"buffer":0,
			"byteLength":48,
			"byteOffset":97696,
			"target":34962
		},
		{
			"buffer":0,
			"byteLength":32,
			"byteOffset":97744,
			"target":34962
		},
		{
			"buffer":0,
			"byteLength":48,
			"byteOffset":97776,
			"target":34962
		},
		{
			"buffer":0,
			"byteLength":48,
			"byteOffset":97824,
			"target":34962
		},
		{
			"buffer":0,
			"byteLength":32,
			"byteOffset":97872,
			"target":34962
		},
		{
			"buffer":0,
			"byteLength":48,
			"byteOffset":97904,
			"target":34962
		},
		{
			"buffer":0,
			"byteLength":48,
			"byteOffset":97952,
			"target":34962
		},
		{
			"buffer":0,
			"byteLength":32,
			"byteOffset":98000,
			"target":34962
		},
		{
			"buffer":0,
			"byteLength":48,
			"byteOffset":98032,
			"target":34962
		},
		{
			"buffer":0,
			"byteLength":48,
			"byteOffset":98080,
			"target":34962
		},
		{
			"buffer":0,
			"byteLength":32,
			"byteOffset":98128,
			"target":34962
		},
		{
			"buffer":0,
			"byteLength":48,
			"byteOffset":98160,
			"target":34962
		},
		{
			"buffer":0,
			"byteLength":48,
			"byteOffset":98208,
			"target":34962
		},
		{
			"buffer":0,
			"byteLength":32,
			"byteOffset":98256,
			"target":34962
		},
		{
			"buffer":0,
			"byteLength":48,
			"byteOffset":98288,
			"target":34962
		},
		{
			"buffer":0,
			"byteLength":48,
			"byteOffset":98336,
			"target":34962
		},
		{
			"buffer":0,
			"byteLength":32,
			"byteOffset":98384,
			"target":34962
		},
		{
			"buffer":0,
			"byteLength":48,
			"byteOffset":98416,
			"target":34962
		},
		{
			"buffer":0,
			"byteLength":48,
			"byteOffset":98464,
			"target":34962
		},
		{
			"buffer":0,
			"byteLength":32,
			"byteOffset":98512,
			"target":34962
		},
		{
			"buffer":0,
			"byteLength":48,
			"byteOffset":98544,
			"target":34962
		},
		{
			"buffer":0,
			"byteLength":48,
			"byteOffset":98592,
			"target":34962
		},
		{
			"buffer":0,
			"byteLength":32,
			"byteOffset":98640,
			"target":34962
		},
		{
			"buffer":0,
			"byteLength":48,
			"byteOffset":98672,
			"target":34962
		},
		{
			"buffer":0,
			"byteLength":48,
			"byteOffset":98720,
			"target":34962
		},
		{
			"buffer":0,
			"byteLength":32,
			"byteOffset":98768,
			"target":34962
		},
		{
			"buffer":0,
			"byteLength":48,
			"byteOffset":98800,
			"target":34962
		},
		{
			"buffer":0,
			"byteLength":48,
			"byteOffset":98848,
			"target":34962
		},
		{
			"buffer":0,
			"byteLength":32,
			"byteOffset":98896,
			"target":34962
		},
		{
			"buffer":0,
			"byteLength":48,
			"byteOffset":98928,
			"target":34962
		},
		{
			"buffer":0,
			"byteLength":48,
			"byteOffset":98976,
			"target":34962
		},
		{
			"buffer":0,
			"byteLength":32,
			"byteOffset":99024,
			"target":34962
		},
		{
			"buffer":0,
			"byteLength":48,
			"byteOffset":99056,
			"target":34962
		},
		{
			"buffer":0,
			"byteLength":48,
			"byteOffset":99104,
			"target":34962
		},
		{
			"buffer":0,
			"byteLength":32,
			"byteOffset":99152,
			"target":34962
		},
		{
			"buffer":0,
			"byteLength":48,
			"byteOffset":99184,
			"target":34962
		},
		{
			"buffer":0,
			"byteLength":48,
			"byteOffset":99232,
			"target":34962
		},
		{
			"buffer":0,
			"byteLength":32,
			"byteOffset":99280,
			"target":34962
		},
		{
			"buffer":0,
			"byteLength":48,
			"byteOffset":99312,
			"target":34962
		},
		{
			"buffer":0,
			"byteLength":48,
			"byteOffset":99360,
			"target":34962
		},
		{
			"buffer":0,
			"byteLength":32,
			"byteOffset":99408,
			"target":34962
		},
		{
			"buffer":0,
			"byteLength":48,
			"byteOffset":99440,
			"target":34962
		},
		{
			"buffer":0,
			"byteLength":48,
			"byteOffset":99488,
			"target":34962
		},
		{
			"buffer":0,
			"byteLength":32,
			"byteOffset":99536,
			"target":34962
		},
		{
			"buffer":0,
			"byteLength":48,
			"byteOffset":99568,
			"target":34962
		},
		{
			"buffer":0,
			"byteLength":48,
			"byteOffset":99616,
			"target":34962
		},
		{
			"buffer":0,
			"byteLength":32,
			"byteOffset":99664,
			"target":34962
		},
		{
			"buffer":0,
			"byteLength":48,
			"byteOffset":99696,
			"target":34962
		},
		{
			"buffer":0,
			"byteLength":48,
			"byteOffset":99744,
			"target":34962
		},
		{
			"buffer":0,
			"byteLength":32,
			"byteOffset":99792,
			"target":34962
		},
		{
			"buffer":0,
			"byteLength":48,
			"byteOffset":99824,
			"target":34962
		},
		{
			"buffer":0,
			"byteLength":48,
			"byteOffset":99872,
			"target":34962
		},
		{
			"buffer":0,
			"byteLength":32,
			"byteOffset":99920,
			"target":34962
		},
		{
			"buffer":0,
			"byteLength":48,
			"byteOffset":99952,
			"target":34962
		},
		{
			"buffer":0,
			"byteLength":48,
			"byteOffset":100000,
			"target":34962
		},
		{
			"buffer":0,
			"byteLength":32,
			"byteOffset":100048,
			"target":34962
		},
		{
			"buffer":0,
			"byteLength":48,
			"byteOffset":100080,
			"target":34962
		},
		{
			"buffer":0,
			"byteLength":48,
			"byteOffset":100128,
			"target":34962
		},
		{
			"buffer":0,
			"byteLength":32,
			"byteOffset":100176,
			"target":34962
		},
		{
			"buffer":0,
			"byteLength":48,
			"byteOffset":100208,
			"target":34962
		},
		{
			"buffer":0,
			"byteLength":48,
			"byteOffset":100256,
			"target":34962
		},
		{
			"buffer":0,
			"byteLength":32,
			"byteOffset":100304,
			"target":34962
		},
		{
			"buffer":0,
			"byteLength":48,
			"byteOffset":100336,
			"target":34962
		},
		{
			"buffer":0,
			"byteLength":48,
			"byteOffset":100384,
			"target":34962
		},
		{
			"buffer":0,
			"byteLength":32,
			"byteOffset":100432,
			"target":34962
		},
		{
			"buffer":0,
			"byteLength":48,
			"byteOffset":100464,
			"target":34962
		},
		{
			"buffer":0,
			"byteLength":48,
			"byteOffset":100512,
			"target":34962
		},
		{
			"buffer":0,
			"byteLength":32,
			"byteOffset":100560,
			"target":34962
		},
		{
			"buffer":0,
			"byteLength":48,
			"byteOffset":100592,
			"target":34962
		},
		{
			"buffer":0,
			"byteLength":48,
			"byteOffset":100640,
			"target":34962
		},
		{
			"buffer":0,
			"byteLength":32,
			"byteOffset":100688,
			"target":34962
		},
		{
			"buffer":0,
			"byteLength":48,
			"byteOffset":100720,
			"target":34962
		},
		{
			"buffer":0,
			"byteLength":48,
			"byteOffset":100768,
			"target":34962
		},
		{
			"buffer":0,
			"byteLength":32,
			"byteOffset":100816,
			"target":34962
		},
		{
			"buffer":0,
			"byteLength":48,
			"byteOffset":100848,
			"target":34962
		},
		{
			"buffer":0,
			"byteLength":48,
			"byteOffset":100896,
			"target":34962
		},
		{
			"buffer":0,
			"byteLength":32,
			"byteOffset":100944,
			"target":34962
		},
		{
			"buffer":0,
			"byteLength":48,
			"byteOffset":100976,
			"target":34962
		},
		{
			"buffer":0,
			"byteLength":48,
			"byteOffset":101024,
			"target":34962
		},
		{
			"buffer":0,
			"byteLength":32,
			"byteOffset":101072,
			"target":34962
		},
		{
			"buffer":0,
			"byteLength":48,
			"byteOffset":101104,
			"target":34962
		},
		{
			"buffer":0,
			"byteLength":48,
			"byteOffset":101152,
			"target":34962
		},
		{
			"buffer":0,
			"byteLength":32,
			"byteOffset":101200,
			"target":34962
		},
		{
			"buffer":0,
			"byteLength":48,
			"byteOffset":101232,
			"target":34962
		},
		{
			"buffer":0,
			"byteLength":48,
			"byteOffset":101280,
			"target":34962
		},
		{
			"buffer":0,
			"byteLength":32,
			"byteOffset":101328,
			"target":34962
		},
		{
			"buffer":0,
			"byteLength":48,
			"byteOffset":101360,
			"target":34962
		},
		{
			"buffer":0,
			"byteLength":48,
			"byteOffset":101408,
			"target":34962
		},
		{
			"buffer":0,
			"byteLength":32,
			"byteOffset":101456,
			"target":34962
		},
		{
			"buffer":0,
			"byteLength":48,
			"byteOffset":101488,
			"target":34962
		},
		{
			"buffer":0,
			"byteLength":48,
			"byteOffset":101536,
			"target":34962
		},
		{
			"buffer":0,
			"byteLength":32,
			"byteOffset":101584,
			"target":34962
		},
		{
			"buffer":0,
			"byteLength":48,
			"byteOffset":101616,
			"target":34962
		},
		{
			"buffer":0,
			"byteLength":48,
			"byteOffset":101664,
			"target":34962
		},
		{
			"buffer":0,
			"byteLength":32,
			"byteOffset":101712,
			"target":34962
		},
		{
			"buffer":0,
			"byteLength":48,
			"byteOffset":101744,
			"target":34962
		},
		{
			"buffer":0,
			"byteLength":48,
			"byteOffset":101792,
			"target":34962
		},
		{
			"buffer":0,
			"byteLength":32,
			"byteOffset":101840,
			"target":34962
		},
		{
			"buffer":0,
			"byteLength":48,
			"byteOffset":101872,
			"target":34962
		},
		{
			"buffer":0,
			"byteLength":48,
			"byteOffset":101920,
			"target":34962
		},
		{
			"buffer":0,
			"byteLength":32,
			"byteOffset":101968,
			"target":34962
		},
		{
			"buffer":0,
			"byteLength":48,
			"byteOffset":102000,
			"target":34962
		},
		{
			"buffer":0,
			"byteLength":48,
			"byteOffset":102048,
			"target":34962
		},
		{
			"buffer":0,
			"byteLength":32,
			"byteOffset":102096,
			"target":34962
		},
		{
			"buffer":0,
			"byteLength":48,
			"byteOffset":102128,
			"target":34962
		},
		{
			"buffer":0,
			"byteLength":48,
			"byteOffset":102176,
			"target":34962
		},
		{
			"buffer":0,
			"byteLength":32,
			"byteOffset":102224,
			"target":34962
		},
		{
			"buffer":0,
			"byteLength":48,
			"byteOffset":102256,
			"target":34962
		},
		{
			"buffer":0,
			"byteLength":48,
			"byteOffset":102304,
			"target":34962
		},
		{
			"buffer":0,
			"byteLength":32,
			"byteOffset":102352,
			"target":34962
		},
		{
			"buffer":0,
			"byteLength":48,
			"byteOffset":102384,
			"target":34962
		},
		{
			"buffer":0,
			"byteLength":48,
			"byteOffset":102432,
			"target":34962
		},
		{
			"buffer":0,
			"byteLength":32,
			"byteOffset":102480,
			"target":34962
		},
		{
			"buffer":0,
			"byteLength":48,
			"byteOffset":102512,
			"target":34962
		},
		{
			"buffer":0,
			"byteLength":48,
			"byteOffset":102560,
			"target":34962
		},
		{
			"buffer":0,
			"byteLength":32,
			"byteOffset":102608,
			"target":34962
		},
		{
			"buffer":0,
			"byteLength":576,
			"byteOffset":102640,
			"target":34962
		},
		{
			"buffer":0,
			"byteLength":576,
			"byteOffset":103216,
			"target":34962
		},
		{
			"buffer":0,
			"byteLength":384,
			"byteOffset":103792,
			"target":34962
		},
		{
			"buffer":0,
			"byteLength":144,
			"byteOffset":104176,
			"target":34963
		}
	],
	"samplers":[
		{
			"magFilter":9729,
			"minFilter":9987
		}
	],
	"buffers":[
		{
			"byteLength":104320,
			"uri":"Stage.bin"
		}
	]
}
